<?xml version="1.0" encoding="utf-8"?>
<!-- Generator: Adobe Illustrator 26.3.1, SVG Export Plug-In . SVG Version: 6.00 Build 0)  -->
<svg version="1.1" id="Calque_1" xmlns="http://www.w3.org/2000/svg" xmlns:xlink="http://www.w3.org/1999/xlink" x="0px" y="0px"
	 viewBox="0 0 154.87 110.50" style="enable-background:new 0 0 154.87 138.86;" xml:space="preserve">
<style type="text/css">
	.st0{fill:#004F9F;}
	.st1{fill:#002856;}
	.st2{fill:#FDC300;}
	.st3{fill:none;stroke:#004F9F;stroke-miterlimit:10;}
	.st4{fill:#FFFFFF;}
	.st5{fill:#FDC300;stroke:#004F9F;stroke-miterlimit:10;}
</style>
<path class="st0" d="M121.72,102.23H34.17c-5.22,0-9.9-2.29-13.06-5.87c2.85,5.08,8.28,8.53,14.49,8.53h84.69
	c6.21,0,11.64-3.46,14.49-8.53C131.62,99.94,126.94,102.23,121.72,102.23z"/>

<g>
	<path class="st0" d="M45.91,42.29v11.39h-8.79v45.53c0,0-14.8-0.01-14.8-14.8s0-30.73,0-30.73h-8.75V42.29H45.91z"/>
	<path class="st0" d="M71.99,42.29l8.46,56.92H65.32l-0.79-10.23h-5.29l-0.89,10.23h-15.3l7.55-56.92H71.99z M64.14,78.89
		c-0.75-6.45-1.5-14.42-2.25-23.91c-1.51,10.9-2.46,18.87-2.84,23.91H64.14z"/>
	<path class="st0" d="M114.76,42.29l-5.2,25.17l7.84,31.75h-13.71c-1.64-5.67-3.14-12.59-4.5-20.74c-0.37,3.61-0.89,7.43-1.56,11.46
		l-1.39,9.28H81.82l5.38-31.75l-5.38-25.17h14.31c0.26,1.57,0.77,4.18,1.54,7.84c0.62,2.79,1.13,5.35,1.52,7.7l3.16-15.54H114.76z"
		/>
	<path class="st0" d="M134.29,42.29c0,0,0,27.67,0,42.29s-14.8,14.63-14.8,14.63V42.29H134.29z"/>
</g>
<polygon class="st1" points="69.26,81.7 62.66,49.5 56.72,81.89 "/>
<polygon class="st2" points="67.27,79.7 62.66,49.5 56.72,81.89 "/>
<g>
	<line class="st3" x1="13.74" y1="40.17" x2="134.5" y2="40.17"/>
	<g>
		<path class="st0" d="M117.99,40.17V30.8c0-6.6-5.4-12-12-12H44.79c-6.6,0-12,5.4-12,12v9.38H117.99z"/>
		<path class="st4" d="M46.31,20.02c-0.46-0.06-0.93-0.1-1.41-0.1c-5.9,0-10.69,4.79-10.69,10.69c0,0.48,0.04,0.95,0.1,1.41
			C35.06,25.73,40.03,20.76,46.31,20.02z"/>
	</g>
	<circle class="st5" cx="126.87" cy="31.24" r="7.07"/>
</g>
<g>
	<g>
		<path class="st2" d="M57.72,35.51c0,0.3,0.18,0.45,0.55,0.45v0.45h-3.85v-0.45c0.12,0,0.22-0.04,0.31-0.11
			c0.09-0.08,0.14-0.19,0.14-0.34v-9.95h-4.12c-0.15,0-0.3,0.04-0.44,0.12c-0.14,0.08-0.21,0.24-0.21,0.48h-0.45v-3.5h0.45
			c0,0.23,0.07,0.39,0.21,0.48c0.14,0.08,0.29,0.12,0.44,0.12h11.1c0.15,0,0.3-0.04,0.44-0.12s0.21-0.24,0.21-0.48h0.45v3.5H62.5
			c0-0.23-0.07-0.39-0.21-0.48c-0.14-0.08-0.29-0.12-0.44-0.12h-4.12V35.51z"/>
		<path class="st2" d="M63.85,35.96c0.22-0.03,0.39-0.14,0.51-0.32c0.12-0.18,0.25-0.39,0.36-0.62l4.62-9.73
			c0.12-0.22,0.22-0.42,0.31-0.6c0.09-0.18,0.14-0.34,0.14-0.48c0-0.17-0.06-0.28-0.18-0.35s-0.24-0.12-0.38-0.15v-0.45h4.23v0.45
			c-0.12,0.03-0.23,0.08-0.35,0.14c-0.12,0.06-0.17,0.18-0.17,0.36c0,0.13,0.03,0.27,0.09,0.4c0.06,0.13,0.15,0.31,0.26,0.52
			l5.2,10.17c0.08,0.18,0.2,0.32,0.34,0.4c0.14,0.08,0.3,0.17,0.49,0.25v0.45h-4.4v-0.45c0.07,0,0.15-0.02,0.25-0.07
			c0.1-0.05,0.15-0.12,0.15-0.23c0-0.17-0.07-0.38-0.2-0.65l-0.95-1.85h-6.1l-0.9,1.77c-0.17,0.35-0.25,0.6-0.25,0.75
			c0,0.18,0.16,0.27,0.48,0.27v0.45h-3.55V35.96z M73.27,31.31l-2.1-4.65l-2.35,4.65H73.27z"/>
		<path class="st2" d="M81.57,35.96c0.13,0,0.25-0.04,0.35-0.11c0.1-0.08,0.15-0.19,0.15-0.34v-11.4c0-0.15-0.05-0.25-0.15-0.31
			c-0.1-0.06-0.22-0.09-0.35-0.09v-0.45h4.67v0.45c-0.08,0-0.17,0.03-0.26,0.08s-0.14,0.12-0.14,0.23c0,0.08,0.03,0.19,0.1,0.32
			c0.07,0.13,0.14,0.28,0.22,0.43l3.58,6.5l3.6-6.43c0.12-0.22,0.2-0.39,0.26-0.51s0.09-0.24,0.09-0.34c0-0.18-0.11-0.28-0.33-0.28
			v-0.45H98v0.45c-0.13,0-0.25,0.03-0.35,0.09c-0.1,0.06-0.15,0.16-0.15,0.31v11.4c0,0.15,0.05,0.26,0.15,0.34
			c0.1,0.08,0.22,0.11,0.35,0.11v0.45h-3.92v-0.45c0.45,0,0.67-0.15,0.67-0.45v-8.3H94.7l-5.03,9.2H89.6l-4.93-9.23h-0.05v8.33
			c0,0.3,0.23,0.45,0.7,0.45v0.45h-3.75V35.96z"/>
	</g>
	<circle class="st4" cx="63.9" cy="29.94" r="1.34"/>
	<circle class="st4" cx="79.25" cy="29.94" r="1.34"/>
</g>
</svg>
